<?xml version="1.0" encoding="UTF-8" standalone="no"?>
<svg
   xmlns:dc="http://purl.org/dc/elements/1.1/"
   xmlns:cc="http://creativecommons.org/ns#"
   xmlns:rdf="http://www.w3.org/1999/02/22-rdf-syntax-ns#"
   xmlns:svg="http://www.w3.org/2000/svg"
   xmlns="http://www.w3.org/2000/svg"
   id="svg8"
   version="1.1"
   viewBox="0 0 190 190"
   height="190mm"
   width="190mm">
  <defs
     id="defs2" />
  <metadata
     id="metadata5">
    <rdf:RDF>
      <cc:Work
         rdf:about="">
        <dc:format>image/svg+xml</dc:format>
        <dc:type
           rdf:resource="http://purl.org/dc/dcmitype/StillImage" />
        <dc:title></dc:title>
      </cc:Work>
    </rdf:RDF>
  </metadata>
  <g
     transform="translate(-15.741081,-9.8910325)"
     id="layer1">
    <rect
       ry="42.707966"
       y="11.908731"
       x="18.14455"
       height="186.30089"
       width="185.9646"
       id="rect8"
       style="opacity:1;fill:#00ccff;fill-opacity:1;stroke:none;stroke-width:0.66499996;stroke-miterlimit:4;stroke-dasharray:none;stroke-dashoffset:0;stroke-opacity:1" />
    <path
       id="rect916-3"
       d="m 172.36976,15.608513 c -2.00106,-0.01804 -4.26713,0.993997 -6.2885,3.461287 l -20.08508,22.319052 c -11.58858,-4.623784 -24.47022,-7.05501 -37.55482,-7.08794 -12.771004,0.02325 -25.355918,2.331383 -36.738838,6.73809 L 57.216068,24.941276 c -6.8088,-8.310872 -16.394182,-0.107969 -9.274886,8.346778 l 11.97343,13.305647 C 39.231976,58.268065 27.02044,76.697466 26.982255,96.294542 c 0.0087,0.223801 0.01908,0.447561 0.03101,0.671277 -0.01592,0.27827 -0.02584,0.558382 -0.02584,0.840777 v 3.947044 L 67.7038,109.2829 c 5.207598,10.53486 7.663532,21.61871 3.307291,34.06148 -32.206404,0.65335 -23.568987,21.33279 -17.854723,20.03547 l -5.356262,6.67815 5.356262,-1.33532 -3.124356,8.45892 c 3.422137,-0.26025 6.844416,-1.85937 10.266555,-8.01399 50.111773,7.4372 65.248193,-32.68622 60.535843,-47.30512 l 14.12058,3.56722 12.8509,27.59212 6.80371,-23.43423 35.66346,8.11837 V 97.806596 c 0,-1.27232 -0.16566,-2.504141 -0.47335,-3.677295 C 188.92678,75.55843 177.1534,58.264985 157.72208,47.011764 l 17.63406,-19.595703 c 5.00576,-5.944744 1.75296,-11.764824 -2.98638,-11.807548 z m -99.080254,53.47167 c 10.124445,6.7e-5 18.331844,6.938439 18.331698,15.497247 -1.93e-4,8.558606 -8.207494,15.49666 -18.331698,15.49673 -10.124205,-7e-5 -18.331505,-6.938124 -18.331699,-15.49673 -1.45e-4,-8.558808 8.207254,-15.49718 18.331699,-15.497247 z m 72.193524,3.780132 c 7.41064,-7.2e-5 13.41821,5.245856 13.4183,11.717115 -9e-5,6.471255 -6.00767,11.717184 -13.4183,11.717112 -7.41063,7.2e-5 -13.41821,-5.245857 -13.4183,-11.717112 9e-5,-6.471259 6.00767,-11.717187 13.4183,-11.717115 z m -62.098533,5.892662 c -2.794227,0.0029 -5.60883,2.373386 -6.881235,5.795513 -1.56427,4.207131 -0.294026,8.561353 2.837037,9.724987 3.130632,1.163728 6.936277,-1.303038 8.500255,-5.509741 1.563989,-4.206735 0.294048,-8.560491 -2.836518,-9.724469 -0.512453,-0.190569 -1.057265,-0.286872 -1.619539,-0.28629 z m -1.751377,6.253096 c 1.233845,-5.245364 5.023884,-1.88274 4.097742,1.39056 -0.840862,2.532211 -1.980353,4.416679 -3.593317,4.416592 -2.005695,0.549915 -3.925493,-0.376645 -3.257036,-4.752877 2.690235,-6.23153 1.13952,-1.054365 2.752611,-1.054275 z m 71.22052,-1.184669 c -2.50509,2.9e-5 -4.53579,1.607801 -4.53564,3.590994 2e-4,1.982991 2.03081,3.590446 4.53564,3.590478 2.50483,-3.2e-5 4.53543,-1.607487 4.53564,-3.590478 1.5e-4,-1.983193 -2.03055,-3.590965 -4.53564,-3.590994 z m -76.481635,27.064496 3.020488,0.55862 0.657323,7.80521 c -0.76953,-1.92857 -2.097672,-6.65451 -3.677811,-8.36383 z m 22.675101,5.47253 20.981664,5.30046 c -7.43907,8.14393 -14.58241,19.2388 -23.128303,16.34267 2.428034,-8.94468 1.191863,-14.2343 -1.403533,-18.1684 z m -8.022765,7.14789 -1.829863,4.32118 c 2.204233,-0.31334 3.130536,0.79352 2.482019,3.64991 -1.118278,0.91347 -1.784596,2.73085 -4.157885,1.1343 4.228264,3.40179 2.415117,6.80327 0.756026,10.20506 -1.879867,2.59961 -4.100177,2.47569 -6.425449,1.51205 -4.426796,-3.94973 -3.457995,-7.29989 -3.590478,-10.77247 l 2.267562,-8.69353 1.149283,6.63319 z m 0.861767,24.93718 c 1.878681,1.17695 3.569861,2.53063 3.570004,4.20057 1.85e-4,1.67015 -1.522944,3.02415 -3.401862,3.02411 -1.878914,4e-5 -3.402044,-1.35396 -3.401859,-3.02411 1.43e-4,-1.66994 1.85946,-3.35991 3.233717,-4.20057 z m -32.600916,1.22505 2.798797,3.02565 3.068029,-2.81533 1.617988,1.78025 -2.008145,2.37092 2.785358,2.51974 -1.740461,1.6645 -2.652551,-2.72955 -4.225581,3.02513 -0.869714,-1.90169 2.416905,-2.63601 -2.500622,-2.75487 z m 26.889509,9.23161 c 1.577774,-0.30111 3.100982,2.81784 3.233716,4.51638 9.8e-5,1.56571 -1.523005,2.835 -3.401859,2.83497 -1.87865,-2e-4 -3.401441,-1.26943 -3.401343,-2.83497 0.490963,-1.56554 2.525453,-4.51618 3.569486,-4.51638 z m -4.188569,19.32892 v 5.2e-4 c -1.983086,-1.6e-4 -3.590811,2.11494 -3.590996,4.72426 5.29e-4,0.0743 0.0024,0.14856 0.0057,0.22273 -4.555175,0.21375 -7.938521,1.48732 -7.943185,2.99 -5.3e-4,1.67012 4.145676,3.0241 9.260416,3.0241 0.296945,-10e-4 0.593566,-0.007 0.888836,-0.017 -0.210352,0.43647 -0.318616,0.88709 -0.321945,1.33997 1.43e-4,2.81813 3.977042,5.1026 8.882663,5.10253 4.90542,-9e-5 8.882002,-2.28452 8.882145,-5.10253 -1.41e-4,-2.818 -3.976725,-5.10243 -8.882145,-5.10253 -0.16134,5.3e-4 -0.32263,0.003 -0.483693,0.009 -0.495818,-0.6339 -1.607894,-1.19819 -3.169314,-1.60818 0.04051,-0.28303 0.06127,-0.57034 0.06201,-0.85834 -1.85e-4,-2.60906 -1.607595,-4.72405 -3.590478,-4.72426 z"
       style="opacity:1;fill:#ffffff;fill-opacity:1;stroke:none;stroke-width:0.39990443;stroke-miterlimit:4;stroke-dasharray:none;stroke-dashoffset:0;stroke-opacity:1" />
  </g>
</svg>
