<?xml version="1.0" encoding="UTF-8" standalone="no"?>
<!-- Created with Inkscape (http://www.inkscape.org/) -->

<svg
   xmlns:dc="http://purl.org/dc/elements/1.1/"
   xmlns:cc="http://creativecommons.org/ns#"
   xmlns:rdf="http://www.w3.org/1999/02/22-rdf-syntax-ns#"
   xmlns:svg="http://www.w3.org/2000/svg"
   xmlns="http://www.w3.org/2000/svg"
   xmlns:sodipodi="http://sodipodi.sourceforge.net/DTD/sodipodi-0.dtd"
   xmlns:inkscape="http://www.inkscape.org/namespaces/inkscape"
   width="190mm"
   height="190mm"
   viewBox="0 0 190 190"
   version="1.1"
   id="svg8"
   inkscape:version="0.92.2 5c3e80d, 2017-08-06"
   sodipodi:docname="logo.svg"
   inkscape:export-filename="/home/tux/Android/Projekts/Twthaar/app/src/main/res/mipmap-xxxhdpi/ic_launcher.png"
   inkscape:export-xdpi="25.667368"
   inkscape:export-ydpi="25.667368">
  <defs
     id="defs2" />
  <sodipodi:namedview
     id="base"
     pagecolor="#ffffff"
     bordercolor="#666666"
     borderopacity="1.0"
     inkscape:pageopacity="0.0"
     inkscape:pageshadow="2"
     inkscape:zoom="0.78678728"
     inkscape:cx="359.05512"
     inkscape:cy="359.05512"
     inkscape:document-units="mm"
     inkscape:current-layer="layer1"
     showgrid="false"
     inkscape:snap-global="false"
     fit-margin-top="0"
     fit-margin-left="0"
     fit-margin-right="0"
     fit-margin-bottom="0"
     inkscape:window-width="1251"
     inkscape:window-height="778"
     inkscape:window-x="29"
     inkscape:window-y="0"
     inkscape:window-maximized="1" />
  <metadata
     id="metadata5">
    <rdf:RDF>
      <cc:Work
         rdf:about="">
        <dc:format>image/svg+xml</dc:format>
        <dc:type
           rdf:resource="http://purl.org/dc/dcmitype/StillImage" />
        <dc:title />
      </cc:Work>
    </rdf:RDF>
  </metadata>
  <g
     inkscape:label="Ebene 1"
     inkscape:groupmode="layer"
     id="layer1"
     transform="translate(-15.741081,-9.8910325)">
    <path
       style="opacity:1;fill:#00ccff;fill-opacity:1;stroke:none;stroke-width:1.51144981;stroke-miterlimit:4;stroke-dasharray:none;stroke-dashoffset:0;stroke-opacity:1"
       d="M 589.98242 21.609375 C 582.41936 21.541192 573.85467 25.366216 566.21484 34.691406 L 490.30273 119.04688 A 307.87768 234.30628 0 0 0 348.36328 92.257812 A 307.87768 234.30628 0 0 0 209.50781 117.72461 L 154.75586 56.882812 C 129.02181 25.471641 92.793593 56.474738 119.70117 88.429688 L 164.95508 138.71875 A 307.87768 234.30628 0 0 0 40.486328 326.56445 A 307.87768 234.30628 0 0 0 40.603516 329.10156 C 40.543346 330.15329 40.505859 331.21198 40.505859 332.2793 L 40.505859 347.19727 L 194.39453 375.6543 C 214.07679 415.4711 223.35906 457.3628 206.89453 504.39062 C 85.169534 506.85998 117.81489 585.01849 139.41211 580.11523 L 119.16797 605.35547 L 139.41211 600.30859 L 127.60352 632.2793 C 140.53758 631.29571 153.47218 625.25179 166.40625 601.99023 C 355.80506 630.09932 413.01359 478.45176 395.20312 423.19922 L 448.57227 436.68164 L 497.14258 540.9668 L 522.85742 452.39648 L 657.64844 483.08008 L 657.64844 332.2793 C 657.64844 327.47053 657.02231 322.81483 655.85938 318.38086 A 307.87768 234.30628 0 0 0 534.62109 140.29883 L 601.26953 66.236328 C 620.18894 43.768004 607.89489 21.770852 589.98242 21.609375 z M 215.50586 223.70703 A 69.285706 58.571423 0 0 1 284.79102 282.2793 A 69.285706 58.571423 0 0 1 215.50586 340.84961 A 69.285706 58.571423 0 0 1 146.2207 282.2793 A 69.285706 58.571423 0 0 1 215.50586 223.70703 z M 488.36328 237.99414 A 50.71428 44.285706 0 0 1 539.07812 282.2793 A 50.71428 44.285706 0 0 1 488.36328 326.56445 A 50.71428 44.285706 0 0 1 437.64844 282.2793 A 50.71428 44.285706 0 0 1 488.36328 237.99414 z M 253.66016 260.26562 A 22.857144 30.714284 20.394676 0 0 227.65234 282.16992 A 22.857144 30.714284 20.394676 0 0 238.375 318.92578 A 22.857144 30.714284 20.394676 0 0 270.50195 298.10156 A 22.857144 30.714284 20.394676 0 0 259.78125 261.34766 A 22.857144 30.714284 20.394676 0 0 253.66016 260.26562 z M 516.2207 279.42188 A 17.142855 13.571429 0 0 0 499.07812 292.99414 A 17.142855 13.571429 0 0 0 516.2207 306.56445 A 17.142855 13.571429 0 0 0 533.36328 292.99414 A 17.142855 13.571429 0 0 0 516.2207 279.42188 z M 227.15625 381.71289 L 238.57227 383.82422 L 240.1582 402.53906 C 237.24974 395.24998 233.12843 388.17331 227.15625 381.71289 z M 312.85742 402.39648 L 392.1582 422.42969 C 364.04204 453.2099 337.04359 495.14329 304.74414 484.19727 C 313.92096 450.39062 309.24882 430.39834 299.43945 415.5293 L 312.85742 402.39648 z M 242.85742 434.53906 L 247.20117 459.60938 L 277.14258 435.25391 L 285 459.53906 L 269.28516 463.82617 C 285.266 476.68333 278.41316 489.53933 272.14258 502.39648 L 247.85742 508.11133 C 231.12622 493.18321 234.78783 480.5212 234.28711 467.39648 L 242.85742 434.53906 z M 195.08594 517.85352 L 183.27539 544.77734 L 198.45898 563.28711 L 173.1543 549.82617 L 156.28516 566.65234 L 163.03125 541.41211 L 156.28516 522.90039 L 173.1543 539.72852 L 195.08594 517.85352 z M 286.42773 528.11133 C 293.52826 528.11118 299.28462 533.22748 299.28516 539.53906 C 299.28586 545.85144 293.52915 550.9689 286.42773 550.96875 C 279.32632 550.9689 273.56961 545.85144 273.57031 539.53906 C 273.57085 533.22748 279.3272 528.11118 286.42773 528.11133 z M 263.57031 569.53906 C 270.67149 569.53895 276.4281 574.33626 276.42773 580.25391 C 276.4281 586.17155 270.67149 590.96886 263.57031 590.96875 C 256.4699 590.96799 250.71447 586.17091 250.71484 580.25391 C 250.71447 574.3369 256.4699 569.53982 263.57031 569.53906 z M 248.375 636.23828 L 248.375 636.24023 A 13.571428 17.857143 0 0 0 234.80273 654.0957 A 13.571428 17.857143 0 0 0 234.82422 654.9375 A 35.000001 11.428572 0 0 0 204.80273 666.23828 A 35.000001 11.428572 0 0 0 239.80273 677.66797 A 35.000001 11.428572 0 0 0 243.16211 677.60352 A 33.571429 19.285715 0 0 0 241.94531 682.66797 A 33.571429 19.285715 0 0 0 275.51758 701.95312 A 33.571429 19.285715 0 0 0 309.08789 682.66797 A 33.571429 19.285715 0 0 0 275.51758 663.38281 A 33.571429 19.285715 0 0 0 273.68945 663.41602 A 35.000001 11.428572 0 0 0 261.71094 657.33789 A 13.571428 17.857143 0 0 0 261.94531 654.09375 A 13.571428 17.857143 0 0 0 248.375 636.23828 z "
       transform="matrix(0.26458333,0,0,0.26458333,15.741081,9.8910325)"
       id="rect916-3" />
  </g>
</svg>
